<svg width="10" height="13" viewBox="0 0 10 13" fill="none" xmlns="http://www.w3.org/2000/svg">
<path fill-rule="evenodd" clip-rule="evenodd" d="M0.684266 7.18427C0.996685 6.87185 1.50322 6.87185 1.81564 7.18427L4.99993 10.3686L8.18423 7.18427C8.49665 6.87185 9.00318 6.87185 9.3156 7.18427C9.62802 7.49669 9.62802 8.00322 9.3156 8.31564L4.99993 12.6313L0.684266 8.31564C0.371846 8.00322 0.371846 7.49669 0.684266 7.18427Z" fill="#283168"/>
<path fill-rule="evenodd" clip-rule="evenodd" d="M4.99995 0.199951C5.44178 0.199951 5.79995 0.558123 5.79995 0.999951V11.4999C5.79995 11.9417 5.44178 12.2999 4.99995 12.2999C4.55812 12.2999 4.19995 11.9417 4.19995 11.4999V0.999951C4.19995 0.558123 4.55812 0.199951 4.99995 0.199951Z" fill="#283168"/>
</svg>
